<svg id="Layer_1" data-name="Layer 1" xmlns="http://www.w3.org/2000/svg" viewBox="0 0 50 50"><defs><style>.cls-1{fill:none;}.cls-2{fill:#001e2f;}.cls-3{fill:#deb66e;}</style></defs><path class="cls-1" d="M3.48,3.48h43v43h-43Z"/><path class="cls-2" d="M40.24,35.76v1.79a3.6,3.6,0,0,1-3.58,3.59H11.55A3.58,3.58,0,0,1,8,37.55V12.45a3.58,3.58,0,0,1,3.58-3.59H36.66a3.6,3.6,0,0,1,3.58,3.59v1.79H24.1a3.58,3.58,0,0,0-3.58,3.59V32.17a3.58,3.58,0,0,0,3.58,3.59Z"/><path class="cls-3" d="M24.1,17.83V32.17H42V17.83Zm7.18,9.86A2.69,2.69,0,1,1,34,25,2.68,2.68,0,0,1,31.28,27.69Z"/></svg>