<svg id="Layer_1" data-name="Layer 1" xmlns="http://www.w3.org/2000/svg" viewBox="0 0 50 50"><defs><style>.cls-1{fill:none;}.cls-2{fill:#001e2f;}.cls-3{fill:#deb66e;}</style></defs><rect class="cls-1" x="3.48" y="3.48" width="43.03" height="43.03"/><path class="cls-2" d="M39.34,10.66H10.66a3.59,3.59,0,0,0-3.59,3.58V35.76a3.59,3.59,0,0,0,3.59,3.58H26.79V35.76H10.66V17.83l14.34,9,14.34-9v9h3.59V14.24A3.59,3.59,0,0,0,39.34,10.66ZM25,23.21l-14.34-9H39.34Z"/><polygon class="cls-3" points="37.55 30.38 44.72 37.55 37.55 44.72 37.55 39.34 30.38 39.34 30.38 35.76 37.55 35.76 37.55 30.38"/></svg>