<svg id="Layer_1" data-name="Layer 1" xmlns="http://www.w3.org/2000/svg" viewBox="0 0 50 50"><defs><style>.cls-1{fill:none;}.cls-2{fill:#f9635c;}.cls-3{fill:#e5e56c;}</style></defs><rect class="cls-1" x="3.48" y="3.48" width="43.03" height="43.03"/><path class="cls-2" d="M38.42,26.08C35.6,18.76,25.58,18.37,28,7.74a.91.91,0,0,0-1.35-1c-6.51,3.84-11.19,11.53-7.26,21.61a.89.89,0,0,1-1.34,1.05,8.9,8.9,0,0,1-3.3-8.51.9.9,0,0,0-1.64-.61,16.91,16.91,0,0,0-2.45,9.41A14.43,14.43,0,0,0,22.87,43.22c4.36.56,9.07-.25,12.46-3.35A12.42,12.42,0,0,0,38.42,26.08Z"/><path class="cls-3" d="M21.78,35.1A5.54,5.54,0,0,0,26,31c.6-2.57-1.72-5.08-.16-9.13.59,3.35,5.87,5.45,5.87,9.11C31.89,35.47,27,39.37,21.78,35.1Z"/></svg>