<svg id="Layer_1" data-name="Layer 1" xmlns="http://www.w3.org/2000/svg" viewBox="0 0 50 50"><defs><style>.cls-1{fill:none;}.cls-2{fill:#001e2f;}.cls-3{fill:#deb66e;}</style></defs><rect class="cls-1" x="3.48" y="3.48" width="43.03" height="43.03"/><path class="cls-2" d="M26.79,17.83A7.17,7.17,0,1,0,19.62,25,7.16,7.16,0,0,0,26.79,17.83Zm-3.58,0a3.59,3.59,0,1,1-3.59-3.59A3.6,3.6,0,0,1,23.21,17.83ZM5.28,35.76v3.58H34V35.76c0-4.77-9.56-7.17-14.35-7.17S5.28,31,5.28,35.76Zm3.58,0c.36-1.27,5.92-3.59,10.76-3.59S30,34.47,30.38,35.76Z"/><polygon class="cls-3" points="39.34 30.38 39.34 25 44.72 25 44.72 21.41 39.34 21.41 39.34 16.03 35.76 16.03 35.76 21.41 30.38 21.41 30.38 25 35.76 25 35.76 30.38 39.34 30.38"/></svg>