<svg id="Layer_1" data-name="Layer 1" xmlns="http://www.w3.org/2000/svg" viewBox="0 0 50 50"><defs><style>.cls-1{fill:none;}.cls-2{fill:#001e2f;}.cls-3{fill:#deb66e;}</style></defs><path class="cls-1" d="M3.48,3.48h43v43h-43Z"/><circle class="cls-2" cx="19.62" cy="19.62" r="7.17"/><path class="cls-2" d="M19.62,30.38c-4.79,0-14.34,2.4-14.34,7.17v3.59H34V37.55C34,32.78,24.41,30.38,19.62,30.38Z"/><path class="cls-3" d="M33.54,13.09l-3,3a5.94,5.94,0,0,1,0,7l3,3C37.16,22.51,37.16,17,33.54,13.09Z"/><path class="cls-3" d="M39.47,7.07,36.55,10a14.32,14.32,0,0,1,0,19.26l2.92,2.92C46.46,25.2,46.48,14.33,39.47,7.07Z"/></svg>